<svg fill="none" height="642" viewBox="0 0 1440 642" width="1440" xmlns="http://www.w3.org/2000/svg" xmlns:xlink="http://www.w3.org/1999/xlink"><filter id="a" color-interpolation-filters="sRGB" filterUnits="userSpaceOnUse" height="796" width="796" x="738" y="-101"><feFlood flood-opacity="0" result="BackgroundImageFix"/><feBlend in="SourceGraphic" in2="BackgroundImageFix" mode="normal" result="shape"/><feGaussianBlur result="effect1_foregroundBlur_7243_108918" stdDeviation="77"/></filter><filter id="b" color-interpolation-filters="sRGB" filterUnits="userSpaceOnUse" height="752" width="752" x="344" y="-79"><feFlood flood-opacity="0" result="BackgroundImageFix"/><feBlend in="SourceGraphic" in2="BackgroundImageFix" mode="normal" result="shape"/><feGaussianBlur result="effect1_foregroundBlur_7243_108918" stdDeviation="77"/></filter><filter id="c" color-interpolation-filters="sRGB" filterUnits="userSpaceOnUse" height="797" width="797" x="-24" y="-101"><feFlood flood-opacity="0" result="BackgroundImageFix"/><feBlend in="SourceGraphic" in2="BackgroundImageFix" mode="normal" result="shape"/><feGaussianBlur result="effect1_foregroundBlur_7243_108918" stdDeviation="77"/></filter><radialGradient id="d" cx="0" cy="0" gradientTransform="matrix(13.00007287 695.00042661 -1558.8773124 29.15900175 684 -54)" gradientUnits="userSpaceOnUse" r="1"><stop offset=".454415" stop-color="#d9d9d9"/><stop offset=".741392" stop-color="#d9d9d9" stop-opacity="0"/></radialGradient><linearGradient id="e"><stop offset="0" stop-color="#fff"/><stop offset="1" stop-color="#fff" stop-opacity="0"/></linearGradient><linearGradient id="f" gradientUnits="userSpaceOnUse" x1="32.7629" x2="256.253" xlink:href="#e" y1="443.641" y2="443.641"/><linearGradient id="g" gradientUnits="userSpaceOnUse" x1="20.0624" x2="270.103" xlink:href="#e" y1="313.017" y2="313.017"/><linearGradient id="h" gradientUnits="userSpaceOnUse" x1="720" x2="720" y1="-47.5525" y2="264"><stop offset="0" stop-color="#fff"/><stop offset="1" stop-color="#f9fdff" stop-opacity="0"/></linearGradient><clipPath id="i"><path d="m0 0h1440v642h-1440z"/></clipPath><mask id="j" height="642" maskUnits="userSpaceOnUse" width="1440" x="-23" y="-54"><path d="m-23-54h1440v642h-1440z" fill="url(#d)"/></mask><g clip-path="url(#i)"><path d="m0 0h1440v642h-1440z" fill="#fff"/><g filter="url(#a)"><circle cx="1136" cy="297" fill="#f3fafd" r="244"/></g><g filter="url(#b)"><circle cx="720" cy="297" fill="#f3fafd" r="222"/></g><g filter="url(#c)"><circle cx="374.5" cy="297.5" fill="#f3fafd" r="244.5"/></g><g opacity=".8" stroke="#cde4ed"><path d="m0-.5h1024" transform="matrix(.866025 -.5 .866025 .5 -301.814 172)"/><path d="m0-.5h1024" transform="matrix(.866025 -.5 .866025 .5 -223.873 217)"/><path d="m0-.5h1024" transform="matrix(.866025 -.5 .866025 .5 -145.931 262)"/><path d="m0-.5h1024" transform="matrix(.866025 -.5 .866025 .5 -67.9883 307)"/><path d="m0-.5h1024" transform="matrix(.866025 -.5 .866025 .5 9.9541 352)"/><path d="m0-.5h1024" transform="matrix(.866025 -.5 .866025 .5 87.8965 397)"/><path d="m0-.5h1024" transform="matrix(.866025 -.5 .866025 .5 165.839 442)"/><path d="m0-.5h1024" transform="matrix(.866025 -.5 .866025 .5 243.781 487)"/><path d="m0-.5h1024" transform="matrix(.866025 -.5 .866025 .5 321.724 532)"/><path d="m0-.5h1024" transform="matrix(.866025 -.5 .866025 .5 399.666 577)"/><path d="m0-.5h1024" transform="matrix(.866025 -.5 .866025 .5 477.608 622)"/><path d="m0-.5h1024" transform="matrix(.866025 -.5 .866025 .5 555.55 667)"/><path d="m0-.5h1024" transform="matrix(.866025 -.5 .866025 .5 633.492 712)"/><path d="m0-.5h1024" transform="matrix(.866025 -.5 .866025 .5 711.435 757)"/><path d="m0-.5h1024" transform="matrix(.866025 -.5 .866025 .5 789.377 802)"/><path d="m0-.5h1024" transform="matrix(.866025 -.5 .866025 .5 867.319 847)"/><path d="m0-.5h1024" transform="matrix(.866025 -.5 .866025 .5 945.262 892)"/><path d="m0-.5h1439" transform="matrix(.866025 .5 -.866025 .5 584.995 -340)"/><path d="m0-.5h1439" transform="matrix(.866025 .5 -.866025 .5 504.376 -293.454)"/><path d="m0-.5h1439" transform="matrix(.866025 .5 -.866025 .5 423.758 -246.909)"/><path d="m0-.5h1439" transform="matrix(.866025 .5 -.866025 .5 343.139 -200.364)"/><path d="m0-.5h1439" transform="matrix(.866025 .5 -.866025 .5 262.52 -153.818)"/><path d="m0-.5h1439" transform="matrix(.866025 .5 -.866025 .5 181.9 -107.273)"/><path d="m0-.5h1439" transform="matrix(.866025 .5 -.866025 .5 101.281 -60.7272)"/><path d="m0-.5h1439" transform="matrix(.866025 .5 -.866025 .5 20.6621 -14.1817)"/><path d="m0-.5h1439" transform="matrix(.866025 .5 -.866025 .5 -59.957 32.3638)"/><path d="m0-.5h1439" transform="matrix(.866025 .5 -.866025 .5 -140.576 78.9092)"/><path d="m0-.5h1439" transform="matrix(.866025 .5 -.866025 .5 -221.195 125.455)"/><path d="m0-.5h1439" transform="matrix(.866025 .5 -.866025 .5 -301.814 172)"/></g><g mask="url(#j)"><g fill="#e6f2f6"><path d="m0 0h88.7594v92.2087h-88.7594z" opacity=".5" transform="matrix(.866025 .5 -.866025 .5 560.855 484)"/><path d="m0 0h88.7594v92.2087h-88.7594z" opacity=".5" transform="matrix(.866025 .5 -.866025 .5 493.855 73.5645)"/><path d="m0 0h88.7594v92.2087h-88.7594z" opacity=".5" transform="matrix(.866025 .5 -.866025 .5 888.855 115)"/><path d="m0 0h88.7594v92.2087h-88.7594z" opacity=".5" transform="matrix(.866025 .5 -.866025 .5 13.8555 262)"/><path d="m0 0h88.7594v92.2087h-88.7594z" opacity=".5" transform="matrix(.866025 .5 -.866025 .5 1281.86 248)"/><path d="m0 0h88.7594v92.2087h-88.7594z" opacity=".5" transform="matrix(.866025 .5 -.866025 .5 1361.86 20)"/><path d="m0 0h88.7594v92.2087h-88.7594z" opacity=".5" transform="matrix(.866025 .5 -.866025 .5 1432.86 430)"/><path d="m0 0h88.7594v92.2087h-88.7594z" opacity=".5" transform="matrix(.866025 .5 -.866025 .5 178.855 -14)"/><path d="m0 0h88.7594v92.2087h-88.7594z" opacity=".5" transform="matrix(.866025 .5 -.866025 .5 330.855 257)"/><path d="m0 0h88.7594v92.2087h-88.7594z" opacity=".5" transform="matrix(.866025 .5 -.866025 .5 800.855 435)"/></g><path d="m0 0h89.5759v93.0569h-89.5759z" fill="#fff" opacity=".5" transform="matrix(.866025 .5 -.866025 .5 1284.59 157)"/><path d="m0 0h88.7594v92.2087h-88.7594z" fill="#fff" opacity=".5" transform="matrix(.866025 .5 -.866025 .5 1127.86 67.5645)"/></g><path d="m0 0h224.66v811h-224.66z" fill="url(#f)" transform="matrix(-.996344 -.0854288 -.0854288 .996344 1503.79 -112.006)"/><path d="m-16.5928-130.624h251.35v811h-251.35z" fill="url(#g)" transform="matrix(.99304546 .11773152 -.11773152 .99304546 -15.493957 1.045066)"/><path d="m0-251h1440v515h-1440z" fill="url(#h)"/></g></svg>